<?xml version="1.0" encoding="UTF-8"?>
<!DOCTYPE svg PUBLIC "-//W3C//DTD SVG 1.1//EN" "http://www.w3.org/Graphics/SVG/1.1/DTD/svg11.dtd">
<!-- Creator: CorelDRAW 2020 (64-Bit) -->
<svg xmlns="http://www.w3.org/2000/svg" xml:space="preserve" width="30px" height="30px" version="1.1" style="shape-rendering:geometricPrecision; text-rendering:geometricPrecision; image-rendering:optimizeQuality; fill-rule:evenodd; clip-rule:evenodd"
viewBox="0 0 26.34 26.34"
 xmlns:xlink="http://www.w3.org/1999/xlink"
 xmlns:xodm="http://www.corel.com/coreldraw/odm/2003">
 <defs>
  <style type="text/css">
   <![CDATA[
    .fil0 {fill:#3B5B9A}
    .fil1 {fill:#FDFDFD}
   ]]>
  </style>
 </defs>
 <g id="__x0023_Layer_x0020_1">
  <metadata id="CorelCorpID_0Corel-Layer"/>
  <path class="fil0" d="M26.34 13.17c0,7.27 -5.9,13.17 -13.17,13.17 -7.27,0 -13.17,-5.9 -13.17,-13.17 0,-7.27 5.9,-13.17 13.17,-13.17 7.27,0 13.17,5.9 13.17,13.17z"/>
  <path class="fil1" d="M11.48 16.54c0,-0.92 0,-1.84 0,-2.76 0,-0.16 -0.04,-0.21 -0.19,-0.2 -0.29,0.01 -0.58,0 -0.87,0.01 -0.11,0 -0.15,-0.03 -0.15,-0.16 0,-0.57 0,-1.15 0,-1.72 0,-0.11 0.03,-0.15 0.14,-0.14 0.29,0 0.59,-0.01 0.88,0 0.17,0.01 0.21,-0.05 0.2,-0.21 -0.01,-0.43 -0.01,-0.87 0,-1.31 0.01,-0.53 0.16,-1.03 0.47,-1.46 0.41,-0.55 0.98,-0.81 1.64,-0.83 0.68,-0.03 1.36,-0.02 2.03,-0.03 0.1,0 0.13,0.04 0.13,0.13 -0.01,0.58 -0.01,1.16 0,1.74 0,0.11 -0.04,0.14 -0.14,0.14 -0.32,-0.01 -0.65,-0.01 -0.98,-0.01 -0.43,0 -0.69,0.23 -0.72,0.66 -0.02,0.34 0,0.69 -0.01,1.03 0,0.13 0.07,0.12 0.15,0.12 0.5,0 0.99,0 1.49,0 0.14,-0.01 0.19,0.03 0.17,0.18 -0.06,0.58 -0.11,1.16 -0.16,1.73 -0.01,0.13 -0.07,0.16 -0.19,0.16 -0.39,-0.01 -0.78,-0.01 -1.17,0 -0.28,0 -0.26,-0.05 -0.26,0.24 0,1.8 0,3.6 0.01,5.4 0,0.19 -0.05,0.24 -0.24,0.24 -0.67,-0.02 -1.34,-0.02 -2.01,0 -0.19,0 -0.23,-0.06 -0.22,-0.23 0,-0.91 0,-1.82 0,-2.72z"/>
 </g>
</svg>
