<?xml version="1.0" encoding="UTF-8"?>
<!DOCTYPE svg PUBLIC "-//W3C//DTD SVG 1.1//EN" "http://www.w3.org/Graphics/SVG/1.1/DTD/svg11.dtd">
<!-- Creator: CorelDRAW 2020 (64-Bit) -->
<svg xmlns="http://www.w3.org/2000/svg" xml:space="preserve" width="30px" height="30px" version="1.1" style="shape-rendering:geometricPrecision; text-rendering:geometricPrecision; image-rendering:optimizeQuality; fill-rule:evenodd; clip-rule:evenodd"
viewBox="0 0 28.22 28.22"
 xmlns:xlink="http://www.w3.org/1999/xlink"
 xmlns:xodm="http://www.corel.com/coreldraw/odm/2003">
 <defs>
  <style type="text/css">
   <![CDATA[
    .fil0 {fill:#F43D28}
    .fil1 {fill:#FDFDFD}
   ]]>
  </style>
 </defs>
 <g id="__x0023_Layer_x0020_1">
  <metadata id="CorelCorpID_0Corel-Layer"/>
  <path class="fil0" d="M28.22 14.11c0,7.8 -6.31,14.11 -14.11,14.11 -7.79,0 -14.11,-6.31 -14.11,-14.11 0,-7.79 6.32,-14.11 14.11,-14.11 7.8,0 14.11,6.32 14.11,14.11z"/>
  <g id="_2343480577824">
   <path class="fil1" d="M20.58 11.54c0.31,0 0.62,0 0.93,-0.01 0.15,0 0.18,0.05 0.18,0.19 0,0.49 0.01,0.49 -0.48,0.49 -0.53,0 -1.06,0 -1.59,-0.01 -0.14,0 -0.19,0.04 -0.18,0.19 0,0.63 -0.01,1.25 0,1.88 0,0.14 -0.04,0.18 -0.18,0.18 -0.5,0 -0.5,0.01 -0.5,-0.49 0,-0.52 0,-1.05 0.01,-1.57 0,-0.14 -0.04,-0.19 -0.19,-0.19 -0.62,0.01 -1.24,0 -1.85,0.01 -0.17,0 -0.21,-0.05 -0.21,-0.21 0.01,-0.46 0,-0.46 0.46,-0.46 0.51,0 1.03,-0.01 1.54,0 0.19,0 0.25,-0.03 0.25,-0.24 -0.02,-0.61 0,-1.22 -0.01,-1.83 0,-0.14 0.04,-0.19 0.18,-0.19 0.5,0 0.5,0 0.5,0.5 0,0.52 0.01,1.04 -0.01,1.57 0,0.15 0.05,0.2 0.2,0.19 0.32,-0.01 0.64,0 0.95,0z"/>
   <path class="fil1" d="M14.98 16.31c-0.27,-0.3 -0.59,-0.56 -0.9,-0.81 -0.18,-0.15 -0.36,-0.29 -0.5,-0.47 -0.19,-0.25 -0.19,-0.47 0.01,-0.72 0.13,-0.16 0.28,-0.29 0.44,-0.4 0.8,-0.59 1.14,-1.37 1.06,-2.36 -0.06,-0.71 -0.18,-1.35 -0.95,-1.68 0.17,-0.13 0.32,-0.13 0.46,-0.15 0.29,-0.05 0.58,-0.06 0.84,-0.18 0.09,-0.04 0.2,-0.1 0.17,-0.2 -0.02,-0.1 -0.14,-0.05 -0.21,-0.05 -0.92,0 -1.83,0 -2.74,0 -0.45,-0.01 -0.88,0.06 -1.31,0.17 -1.69,0.47 -2.49,1.73 -2.15,3.38 0.09,0.43 0.28,0.81 0.6,1.11 0.49,0.44 1.08,0.6 1.72,0.65 0.15,0.01 0.36,-0.08 0.44,0.04 0.07,0.11 0.03,0.3 0.02,0.45 -0.02,0.21 0.03,0.37 0.22,0.49 0.1,0.07 0.15,0.18 0.18,0.29 0.04,0.12 0.03,0.17 -0.12,0.17 -0.23,0 -0.47,0.02 -0.7,0.04 -0.68,0.07 -1.34,0.2 -1.95,0.53 -0.52,0.28 -0.91,0.66 -1.08,1.25 -0.32,1.12 0.2,2.16 1.32,2.63 0.73,0.3 1.5,0.39 2.28,0.35 0.82,-0.05 1.62,-0.21 2.33,-0.67 1.33,-0.86 1.58,-2.67 0.52,-3.86zm-3.46 -2.66l0 0c-0.67,-0.52 -0.94,-1.25 -0.97,-1.96 0,-0.48 0.06,-0.81 0.23,-1.13 0.37,-0.71 1.1,-0.9 1.77,-0.45 0.6,0.4 0.89,1 1.02,1.69 0.09,0.46 0.05,0.91 -0.13,1.34 -0.36,0.84 -1.2,1.07 -1.92,0.51zm2.58 5.63l0 0c-0.91,0.89 -2.64,1.02 -3.66,0.27 -0.83,-0.61 -0.9,-1.58 -0.15,-2.29 0.55,-0.53 1.24,-0.73 1.96,-0.74 0.64,0.01 1.2,0.14 1.69,0.51 0.8,0.6 0.86,1.55 0.16,2.25z"/>
  </g>
 </g>
</svg>
