<?xml version="1.0" encoding="UTF-8"?>
<!DOCTYPE svg PUBLIC "-//W3C//DTD SVG 1.1//EN" "http://www.w3.org/Graphics/SVG/1.1/DTD/svg11.dtd">
<!-- Creator: CorelDRAW 2020 (64-Bit) -->
<svg xmlns="http://www.w3.org/2000/svg" xml:space="preserve" width="30px" height="30px" version="1.1" style="shape-rendering:geometricPrecision; text-rendering:geometricPrecision; image-rendering:optimizeQuality; fill-rule:evenodd; clip-rule:evenodd"
viewBox="0 0 2.04 2.04"
 xmlns:xlink="http://www.w3.org/1999/xlink"
 xmlns:xodm="http://www.corel.com/coreldraw/odm/2003">
 <defs>
  <style type="text/css">
   <![CDATA[
    .fil0 {fill:#1CB7EB;fill-rule:nonzero}
    .fil1 {fill:white;fill-rule:nonzero}
   ]]>
  </style>
 </defs>
 <g id="__x0023_Layer_x0020_1">
  <metadata id="CorelCorpID_0Corel-Layer"/>
  <g id="_2343472562448">
   <circle class="fil0" cx="1.02" cy="1.02" r="1.02"/>
   <g>
    <g>
     <path class="fil1" d="M1.56 0.65c-0.03,0.03 -0.08,0.04 -0.12,0.04 0.04,-0.03 0.08,-0.07 0.09,-0.13 -0.04,0.03 -0.08,0.05 -0.14,0.06 -0.04,-0.05 -0.1,-0.08 -0.16,-0.08 -0.12,0 -0.23,0.11 -0.23,0.25 0,0.01 0,0.03 0.01,0.05 -0.19,-0.01 -0.36,-0.1 -0.47,-0.25 -0.02,0.03 -0.03,0.08 -0.03,0.12 0,0.09 0.04,0.16 0.1,0.2 -0.04,0 -0.07,-0.01 -0.1,-0.03 0,0 0,0.01 0,0.01 0,0.11 0.08,0.21 0.18,0.24 -0.02,0 -0.04,0.01 -0.06,0.01 -0.01,0 -0.03,0 -0.04,-0.01 0.03,0.1 0.11,0.17 0.2,0.17 -0.07,0.06 -0.17,0.1 -0.27,0.1 -0.02,0 -0.04,0 -0.06,-0.01 0.1,0.07 0.22,0.11 0.35,0.11 0.41,0 0.64,-0.36 0.64,-0.68 0,-0.01 0,-0.02 0,-0.03 0.05,-0.04 0.08,-0.08 0.11,-0.14z"/>
    </g>
   </g>
  </g>
 </g>
</svg>
